
    <svg
      width="80"
      height="30"
      viewBox="0 0 80 30"
      fill="none"
      xmlns="http://www.w3.org/2000/svg"
    >
      <path
        d="M0 29.3344V0H11.5733C13.7982 0 15.6937 0.424929 17.2597 1.27479C18.8258 2.1151 20.0194 3.28484 20.8406 4.78403C21.6714 6.27367 22.0867 7.99248 22.0867 9.94047C22.0867 11.8885 21.6666 13.6073 20.8263 15.0969C19.986 16.5865 18.7685 17.7467 17.1738 18.5775C15.5887 19.4083 13.6693 19.8236 11.4158 19.8236H6.20205V14.8534H10.4131C11.6068 14.8534 12.5903 14.6481 13.3638 14.2375C14.1468 13.8173 14.7293 13.2396 15.1112 12.5044C15.5027 11.7595 15.6985 10.9049 15.6985 9.94047C15.6985 8.96647 15.5027 8.11662 15.1112 7.3909C14.7293 6.65563 14.1468 6.08746 13.3638 5.68641C12.5808 5.2758 11.5877 5.0705 10.3845 5.0705H6.20205V29.3344H0Z"
        fill="#4D4D4D"
      />
      <path
        d="M31.6835 29.7498C30.2798 29.7498 29.0288 29.5063 27.9307 29.0193C26.8326 28.5227 25.9636 27.7923 25.3238 26.8278C24.6936 25.8538 24.3785 24.6411 24.3785 23.1897C24.3785 21.9674 24.6029 20.9409 25.0517 20.1101C25.5005 19.2794 26.1116 18.6109 26.8851 18.1048C27.6586 17.5987 28.5371 17.2168 29.5206 16.959C30.5137 16.7011 31.5545 16.5197 32.6431 16.4147C33.9227 16.281 34.954 16.1568 35.737 16.0423C36.52 15.9181 37.0882 15.7367 37.4415 15.498C37.7948 15.2592 37.9714 14.9059 37.9714 14.438V14.3521C37.9714 13.4449 37.685 12.7431 37.112 12.2465C36.5486 11.75 35.7465 11.5017 34.7057 11.5017C33.6076 11.5017 32.7338 11.7452 32.0845 12.2322C31.4352 12.7097 31.0055 13.3113 30.7954 14.037L25.152 13.5786C25.4384 12.2418 26.0018 11.0863 26.8421 10.1124C27.6824 9.12881 28.7662 8.37444 30.0935 7.84924C31.4304 7.3145 32.9773 7.04713 34.7343 7.04713C35.9566 7.04713 37.1264 7.19037 38.2436 7.47684C39.3704 7.76331 40.3682 8.20733 41.2372 8.80892C42.1157 9.4105 42.808 10.184 43.3141 11.1293C43.8202 12.0651 44.0732 13.1871 44.0732 14.4953V29.3344H38.2866V26.2835H38.1147C37.7614 26.971 37.2887 27.5774 36.6967 28.1026C36.1046 28.6182 35.3932 29.0241 34.5625 29.3201C33.7317 29.6066 32.772 29.7498 31.6835 29.7498ZM33.4309 25.5387C34.3285 25.5387 35.1211 25.362 35.8086 25.0087C36.4961 24.6459 37.0356 24.1589 37.4272 23.5477C37.8187 22.9366 38.0144 22.2443 38.0144 21.4708V19.1361C37.8234 19.2603 37.5608 19.3748 37.2266 19.4799C36.902 19.5754 36.5343 19.6661 36.1237 19.752C35.7131 19.8284 35.3025 19.9 34.8919 19.9669C34.4813 20.0242 34.1089 20.0767 33.7747 20.1244C33.0585 20.2295 32.433 20.3966 31.8983 20.6258C31.3636 20.8549 30.9482 21.1653 30.6522 21.5568C30.3561 21.9387 30.2081 22.4162 30.2081 22.9891C30.2081 23.8199 30.5089 24.4549 31.1105 24.8941C31.7216 25.3238 32.4951 25.5387 33.4309 25.5387Z"
        fill="#4D4D4D"
      />
      <path
        d="M62.9157 19.9669V7.3336H69.0175V29.3344H63.1592V25.3382H62.93C62.4335 26.6273 61.6075 27.6633 60.4521 28.4464C59.3062 29.2294 57.9073 29.6209 56.2553 29.6209C54.7848 29.6209 53.4909 29.2867 52.3737 28.6182C51.2564 27.9498 50.3827 26.9997 49.7525 25.7679C49.1318 24.5361 48.8167 23.0607 48.8071 21.3419V7.3336H54.9089V20.2533C54.9185 21.552 55.267 22.5785 55.9545 23.3329C56.642 24.0873 57.5635 24.4644 58.7189 24.4644C59.4542 24.4644 60.1417 24.2973 60.7815 23.9631C61.4213 23.6194 61.9369 23.1133 62.3285 22.4448C62.7295 21.7764 62.9253 20.9504 62.9157 19.9669Z"
        fill="#4D4D4D"
      />
      <path d="M80 0V29.3344H73.8982V0H80Z" fill="#4D4D4D" />
      <path
        d="M80 0V29.3344H73.8982L80 0Z"
        fill="url(#paint0_linear_1647_634)"
      />
      <defs>
        <linearGradient
          id="paint0_linear_1647_634"
          x1="0"
          y1="0"
          x2="76.465"
          y2="37.0462"
          gradientUnits="userSpaceOnUse"
        >
          <stop stop-color="#0ECDD8" />
          <stop offset="1" stop-color="#4B99FE" />
        </linearGradient>
      </defs>
    </svg>

