<svg width="72" height="27" viewBox="0 0 72 27" fill="none" xmlns="http://www.w3.org/2000/svg">
<path d="M0 26.1818V0H10.3295C12.3153 0 14.0071 0.379261 15.4048 1.13778C16.8026 1.88778 17.8679 2.93182 18.6009 4.26989C19.3423 5.59943 19.7131 7.13352 19.7131 8.87216C19.7131 10.6108 19.3381 12.1449 18.5881 13.4744C17.8381 14.804 16.7514 15.8395 15.3281 16.581C13.9134 17.3224 12.2003 17.6932 10.1889 17.6932H5.53551V13.2571H9.29403C10.3594 13.2571 11.2372 13.0739 11.9276 12.7074C12.6264 12.3324 13.1463 11.8168 13.4872 11.1605C13.8366 10.4957 14.0114 9.73296 14.0114 8.87216C14.0114 8.00284 13.8366 7.24432 13.4872 6.59659C13.1463 5.94034 12.6264 5.43324 11.9276 5.07528C11.2287 4.70881 10.3423 4.52557 9.26847 4.52557H5.53551V26.1818H0Z" fill="#D9D9D9"/>
<path d="M28.2784 26.5526C27.0256 26.5526 25.9091 26.3352 24.929 25.9006C23.9489 25.4574 23.1733 24.8054 22.6023 23.9446C22.0398 23.0753 21.7585 21.9929 21.7585 20.6974C21.7585 19.6065 21.9588 18.6903 22.3594 17.9489C22.7599 17.2074 23.3054 16.6108 23.9957 16.1591C24.6861 15.7074 25.4702 15.3665 26.348 15.1364C27.2344 14.9063 28.1634 14.7443 29.1349 14.6506C30.277 14.5313 31.1974 14.4205 31.8963 14.3182C32.5952 14.2074 33.1023 14.0455 33.4176 13.8324C33.733 13.6193 33.8906 13.304 33.8906 12.8864V12.8097C33.8906 12 33.6349 11.3736 33.1236 10.9304C32.6207 10.4872 31.9048 10.2656 30.9759 10.2656C29.9957 10.2656 29.2159 10.483 28.6364 10.9176C28.0568 11.3438 27.6733 11.8807 27.4858 12.5284L22.4489 12.1193C22.7045 10.9261 23.2074 9.89489 23.9574 9.02557C24.7074 8.14773 25.6747 7.47443 26.8594 7.00568C28.0526 6.52841 29.4332 6.28977 31.0014 6.28977C32.0923 6.28977 33.1364 6.41761 34.1335 6.6733C35.1392 6.92898 36.0298 7.32528 36.8054 7.86222C37.5895 8.39915 38.2074 9.08949 38.6591 9.93324C39.1108 10.7685 39.3366 11.7699 39.3366 12.9375V26.1818H34.1719V23.4588H34.0185C33.7031 24.0724 33.2813 24.6136 32.7528 25.0824C32.2244 25.5426 31.5895 25.9048 30.848 26.169C30.1065 26.4247 29.25 26.5526 28.2784 26.5526ZM29.8381 22.794C30.6392 22.794 31.3466 22.6364 31.9602 22.321C32.5739 21.9972 33.0554 21.5625 33.4048 21.017C33.7543 20.4716 33.929 19.8537 33.929 19.1634V17.0795C33.7585 17.1903 33.5241 17.2926 33.2259 17.3864C32.9361 17.4716 32.608 17.5526 32.2415 17.6293C31.875 17.6974 31.5085 17.7614 31.142 17.821C30.7756 17.8722 30.4432 17.919 30.1449 17.9616C29.5057 18.0554 28.9474 18.2045 28.4702 18.4091C27.9929 18.6136 27.6222 18.8906 27.358 19.2401C27.0938 19.581 26.9616 20.0071 26.9616 20.5185C26.9616 21.2599 27.2301 21.8267 27.767 22.2188C28.3125 22.6023 29.0028 22.794 29.8381 22.794Z" fill="#D9D9D9"/>
<path d="M56.1541 17.821V6.54545H61.6001V26.1818H56.3714V22.6151H56.1669C55.7237 23.7656 54.9865 24.6903 53.9553 25.3892C52.9325 26.0881 51.6839 26.4375 50.2095 26.4375C48.897 26.4375 47.7422 26.1392 46.745 25.5426C45.7479 24.946 44.968 24.098 44.4055 22.9986C43.8516 21.8991 43.5703 20.5824 43.5618 19.0483V6.54545H49.0078V18.0767C49.0163 19.2358 49.3274 20.152 49.9411 20.8253C50.5547 21.4986 51.3771 21.8352 52.4084 21.8352C53.0646 21.8352 53.6783 21.6861 54.2493 21.3878C54.8203 21.081 55.2805 20.6293 55.63 20.0327C55.9879 19.4361 56.1626 18.6989 56.1541 17.821Z" fill="#D9D9D9"/>
<path d="M71.4023 0V26.1818H65.9563V0H71.4023Z" fill="#D9D9D9"/>
<path d="M71.4023 0V26.1818H65.9563L71.4023 0Z" fill="url(#paint0_linear_1647_634)"/>
<defs>
<linearGradient id="paint0_linear_1647_634" x1="0" y1="0" x2="68.2473" y2="33.0648" gradientUnits="userSpaceOnUse">
<stop stop-color="#0ECDD8"/>
<stop offset="1" stop-color="#4B99FE"/>
</linearGradient>
</defs>
</svg>
