<svg width="77" height="42" viewBox="0 0 77 42" fill="none" xmlns="http://www.w3.org/2000/svg">
<rect width="76.7891" height="41.2553" rx="20.6277" fill="#022A31"/>
<rect x="2.71606" y="2.46301" width="71.5619" height="36.3292" rx="18.1646" fill="#2E95D9" stroke="#073F74" stroke-width="2"/>
<g filter="url(#filter0_i_1647_431)">
<rect x="11.1484" y="3.86035" width="61.3993" height="33.5345" rx="16.7673" fill="url(#paint0_linear_1647_431)"/>
</g>
<rect x="11.6484" y="4.36035" width="60.3993" height="32.5345" rx="16.2673" stroke="#1FC7DD"/>
<path d="M25.2386 12.5419V14.5161M30.8224 14.8547L29.4265 16.2507M33.1353 20.4386H31.1611M30.8224 26.0225L29.4265 24.6266M25.2386 26.3612V28.3354M21.0506 24.6266L19.6547 26.0225M19.316 20.4386H17.3418M21.0506 16.2507L19.6547 14.8547M28.5289 20.4386C28.5289 21.3113 28.1822 22.1482 27.5652 22.7652C26.9481 23.3823 26.1112 23.729 25.2386 23.729C24.3659 23.729 23.529 23.3823 22.912 22.7652C22.2949 22.1482 21.9482 21.3113 21.9482 20.4386C21.9482 19.566 22.2949 18.7291 22.912 18.112C23.529 17.495 24.3659 17.1483 25.2386 17.1483C26.1112 17.1483 26.9481 17.495 27.5652 18.112C28.1822 18.7291 28.5289 19.566 28.5289 20.4386Z" stroke="white" stroke-opacity="0.5" stroke-width="1.5" stroke-linecap="round" stroke-linejoin="round"/>
<path d="M62.5548 22.4719C61.7303 22.8156 60.8457 22.992 59.9524 22.9908C56.2173 22.9908 53.1898 19.9632 53.1898 16.2281C53.1898 15.3056 53.3743 14.4268 53.7086 13.6257C52.4764 14.1398 51.4238 15.0069 50.6835 16.118C49.9432 17.2291 49.5482 18.5344 49.5483 19.8695C49.5483 23.6046 52.5759 26.6322 56.311 26.6322C57.6461 26.6323 58.9514 26.2373 60.0625 25.497C61.1736 24.7567 62.0407 23.7041 62.5548 22.4719Z" stroke="white" stroke-width="1.5" stroke-linecap="round" stroke-linejoin="round"/>
<defs>
<filter id="filter0_i_1647_431" x="11.1484" y="3.86035" width="61.3994" height="33.5345" filterUnits="userSpaceOnUse" color-interpolation-filters="sRGB">
<feFlood flood-opacity="0" result="BackgroundImageFix"/>
<feBlend mode="normal" in="SourceGraphic" in2="BackgroundImageFix" result="shape"/>
<feColorMatrix in="SourceAlpha" type="matrix" values="0 0 0 0 0 0 0 0 0 0 0 0 0 0 0 0 0 0 127 0" result="hardAlpha"/>
<feOffset/>
<feGaussianBlur stdDeviation="3.5"/>
<feComposite in2="hardAlpha" operator="arithmetic" k2="-1" k3="1"/>
<feColorMatrix type="matrix" values="0 0 0 0 0.741609 0 0 0 0 0.641493 0 0 0 0 0.94184 0 0 0 0.3 0"/>
<feBlend mode="normal" in2="shape" result="effect1_innerShadow_1647_431"/>
</filter>
<linearGradient id="paint0_linear_1647_431" x1="11.1484" y1="3.86035" x2="76.4987" y2="25.4176" gradientUnits="userSpaceOnUse">
<stop stop-color="#0ECDD8"/>
<stop offset="1" stop-color="#4B99FE"/>
</linearGradient>
</defs>
</svg>
