
    <svg
      width="100%"
      height="100%"
      viewBox="0 0 77 42"
      fill="none"
      xmlns="http://www.w3.org/2000/svg"
    >
      <rect
        x="76.7891"
        y="41.2554"
        width="76.7891"
        height="41.2553"
        rx="20.6277"
        transform="rotate(-180 76.7891 41.2554)"
        fill="#CEF6FD"
      />
      <rect
        x="74.073"
        y="38.7924"
        width="71.5619"
        height="36.3292"
        rx="18.1646"
        transform="rotate(-180 74.073 38.7924)"
        fill="#2E95D9"
        stroke="#073F74"
        stroke-width="2"
      />
      <g filter="url(#filter0_i_1647_410)">
        <rect
          x="65.6406"
          y="37.395"
          width="61.3993"
          height="33.5345"
          rx="16.7673"
          transform="rotate(-180 65.6406 37.395)"
          fill="url(#paint0_linear_1647_410)"
        />
      </g>
      <rect
        x="65.1406"
        y="36.895"
        width="60.3993"
        height="32.5345"
        rx="16.2673"
        transform="rotate(-180 65.1406 36.895)"
        stroke="#1FC7DD"
      />
      <path
        d="M19.6621 13.0067V14.9809M25.246 15.3196L23.8501 16.7156M27.5589 20.9035H25.5847M25.246 26.4874L23.8501 25.0914M19.6621 26.826V28.8002M15.4742 25.0914L14.0783 26.4874M13.7396 20.9035H11.7654M15.4742 16.7156L14.0783 15.3196M22.9525 20.9035C22.9525 21.7761 22.6058 22.613 21.9888 23.2301C21.3717 23.8471 20.5348 24.1938 19.6621 24.1938C18.7895 24.1938 17.9526 23.8471 17.3355 23.2301C16.7185 22.613 16.3718 21.7761 16.3718 20.9035C16.3718 20.0308 16.7185 19.1939 17.3355 18.5769C17.9526 17.9598 18.7895 17.6132 19.6621 17.6132C20.5348 17.6132 21.3717 17.9598 21.9888 18.5769C22.6058 19.1939 22.9525 20.0308 22.9525 20.9035Z"
        stroke="white"
        stroke-width="1.5"
        stroke-linecap="round"
        stroke-linejoin="round"
      />
      <path
        opacity="0.5"
        d="M56.9784 22.9368C56.1538 23.2805 55.2692 23.4568 54.376 23.4556C50.6409 23.4556 47.6133 20.428 47.6133 16.693C47.6133 15.7705 47.7978 14.8917 48.1322 14.0906C46.8999 14.6046 45.8474 15.4718 45.1071 16.5829C44.3668 17.694 43.9718 18.9993 43.9719 20.3344C43.9719 24.0694 46.9995 27.097 50.7345 27.097C52.0697 27.0971 53.375 26.7022 54.4861 25.9618C55.5971 25.2215 56.4643 24.169 56.9784 22.9368Z"
        stroke="white"
        stroke-width="1.5"
        stroke-linecap="round"
        stroke-linejoin="round"
      />
      <defs>
        <filter
          id="filter0_i_1647_410"
          x="4.24121"
          y="3.86047"
          width="61.3994"
          height="33.5345"
          filterUnits="userSpaceOnUse"
          color-interpolation-filters="sRGB"
        >
          <feFlood flood-opacity="0" result="BackgroundImageFix" />
          <feBlend
            mode="normal"
            in="SourceGraphic"
            in2="BackgroundImageFix"
            result="shape"
          />
          <feColorMatrix
            in="SourceAlpha"
            type="matrix"
            values="0 0 0 0 0 0 0 0 0 0 0 0 0 0 0 0 0 0 127 0"
            result="hardAlpha"
          />
          <feOffset />
          <feGaussianBlur stdDeviation="3.5" />
          <feComposite in2="hardAlpha" operator="arithmetic" k2="-1" k3="1" />
          <feColorMatrix
            type="matrix"
            values="0 0 0 0 0.741609 0 0 0 0 0.641493 0 0 0 0 0.94184 0 0 0 0.3 0"
          />
          <feBlend
            mode="normal"
            in2="shape"
            result="effect1_innerShadow_1647_410"
          />
        </filter>
        <linearGradient
          id="paint0_linear_1647_410"
          x1="65.6406"
          y1="37.395"
          x2="130.991"
          y2="58.9523"
          gradientUnits="userSpaceOnUse"
        >
          <stop stop-color="#0ECDD8" />
          <stop offset="1" stop-color="#4B99FE" />
        </linearGradient>
      </defs>
    </svg>

