<svg width="100%" height="100%" viewBox="0 0 1396 837" fill="none" xmlns="http://www.w3.org/2000/svg">
<g opacity="0.7">
<rect x="0.5" y="0.5" width="278" height="278" rx="17.5" fill="url(#paint0_linear_1647_724)" fill-opacity="0.3" stroke="url(#paint1_linear_1647_724)"/>
<rect x="558.5" y="279.5" width="278" height="278" rx="17.5" fill="url(#paint2_linear_1647_724)" fill-opacity="0.3" stroke="url(#paint3_linear_1647_724)"/>
<rect x="1395.5" y="558.5" width="278" height="278" rx="17.5" transform="rotate(90 1395.5 558.5)" fill="url(#paint4_linear_1647_724)" fill-opacity="0.3" stroke="url(#paint5_linear_1647_724)"/>
<rect x="279.5" y="279.5" width="278" height="278" rx="17.5" stroke="url(#paint6_linear_1647_724)" stroke-opacity="0.3"/>
<rect x="558.5" y="558.5" width="278" height="278" rx="17.5" stroke="url(#paint7_linear_1647_724)" stroke-opacity="0.3"/>
<rect x="557.5" y="0.5" width="278" height="278" rx="17.5" stroke="url(#paint8_linear_1647_724)" stroke-opacity="0.3"/>
<rect x="1117.5" y="0.5" width="278" height="278" rx="17.5" stroke="url(#paint9_linear_1647_724)" stroke-opacity="0.3"/>
<rect y="837" width="279" height="279" rx="18" transform="rotate(-90 0 837)" fill="url(#paint10_linear_1647_724)" fill-opacity="0.1"/>
<rect x="0.5" y="836.5" width="278" height="278" rx="17.5" transform="rotate(-90 0.5 836.5)" stroke="url(#paint11_linear_1647_724)" stroke-opacity="0.4"/>
</g>
<defs>
<linearGradient id="paint0_linear_1647_724" x1="279" y1="279" x2="183.5" y2="180.5" gradientUnits="userSpaceOnUse">
<stop stop-color="#A19B9B"/>
<stop offset="1" stop-color="#D9D9D9" stop-opacity="0"/>
</linearGradient>
<linearGradient id="paint1_linear_1647_724" x1="279" y1="279" x2="48" y2="46" gradientUnits="userSpaceOnUse">
<stop stop-color="#B9B9B9"/>
<stop offset="0.695447" stop-color="#D9D9D9" stop-opacity="0"/>
</linearGradient>
<linearGradient id="paint2_linear_1647_724" x1="837" y1="558" x2="741.5" y2="459.5" gradientUnits="userSpaceOnUse">
<stop stop-color="#A19B9B"/>
<stop offset="1" stop-color="#D9D9D9" stop-opacity="0"/>
</linearGradient>
<linearGradient id="paint3_linear_1647_724" x1="837" y1="558" x2="606" y2="325" gradientUnits="userSpaceOnUse">
<stop stop-color="#B9B9B9"/>
<stop offset="0.695447" stop-color="#D9D9D9" stop-opacity="0"/>
</linearGradient>
<linearGradient id="paint4_linear_1647_724" x1="1675" y1="837" x2="1579.5" y2="738.5" gradientUnits="userSpaceOnUse">
<stop stop-color="#A19B9B"/>
<stop offset="1" stop-color="#D9D9D9" stop-opacity="0"/>
</linearGradient>
<linearGradient id="paint5_linear_1647_724" x1="1675" y1="837" x2="1444" y2="604" gradientUnits="userSpaceOnUse">
<stop stop-color="#B9B9B9"/>
<stop offset="0.695447" stop-color="#D9D9D9" stop-opacity="0"/>
</linearGradient>
<linearGradient id="paint6_linear_1647_724" x1="418.5" y1="279" x2="418.5" y2="558" gradientUnits="userSpaceOnUse">
<stop stop-color="#919191"/>
<stop offset="1" stop-color="#D9D9D9" stop-opacity="0"/>
</linearGradient>
<linearGradient id="paint7_linear_1647_724" x1="697.5" y1="558" x2="697.5" y2="837" gradientUnits="userSpaceOnUse">
<stop stop-color="#919191"/>
<stop offset="1" stop-color="#D9D9D9" stop-opacity="0"/>
</linearGradient>
<linearGradient id="paint8_linear_1647_724" x1="696.5" y1="0" x2="696.5" y2="279" gradientUnits="userSpaceOnUse">
<stop stop-color="#919191"/>
<stop offset="1" stop-color="#D9D9D9" stop-opacity="0"/>
</linearGradient>
<linearGradient id="paint9_linear_1647_724" x1="1256.5" y1="0" x2="1256.5" y2="279" gradientUnits="userSpaceOnUse">
<stop stop-color="#919191"/>
<stop offset="1" stop-color="#D9D9D9" stop-opacity="0"/>
</linearGradient>
<linearGradient id="paint10_linear_1647_724" x1="279" y1="1116" x2="183.5" y2="1017.5" gradientUnits="userSpaceOnUse">
<stop stop-color="#5B5959"/>
<stop offset="1" stop-color="#D9D9D9" stop-opacity="0"/>
</linearGradient>
<linearGradient id="paint11_linear_1647_724" x1="279" y1="1116" x2="48" y2="883" gradientUnits="userSpaceOnUse">
<stop stop-color="#888888"/>
<stop offset="0.695447" stop-color="#D9D9D9" stop-opacity="0"/>
</linearGradient>
</defs>
</svg>
